<svg xmlns="http://www.w3.org/2000/svg" version="1.1" xmlns:xlink="http://www.w3.org/1999/xlink" width="42" height="42"><svg width="42" height="42" viewBox="0 0 42 42" fill="none" xmlns="http://www.w3.org/2000/svg">
<path d="M39.375 21C39.375 10.8518 31.1482 2.625 21 2.625C10.8518 2.625 2.625 10.8518 2.625 21C2.625 31.1482 10.8518 39.375 21 39.375C31.1482 39.375 39.375 31.1482 39.375 21Z" fill="white"></path>
<path d="M24.5589 11.9261C24.8138 11.926 25.0558 11.9098 25.2945 11.9308C25.5143 11.9502 25.7305 12.0098 25.9483 12.0515C25.9991 12.0612 26.0496 12.0741 26.1009 12.0789C26.4712 12.1131 26.8413 12.1508 27.2122 12.1773C27.5949 12.2046 27.9782 12.2229 28.3615 12.2406C28.6687 12.2549 28.9763 12.2589 29.2834 12.2739C29.6303 12.2908 29.9767 12.3187 30.3236 12.3352C30.8385 12.3596 31.3538 12.3776 31.8689 12.3993C32.0975 12.409 32.3277 12.4085 32.5537 12.4389C32.6348 12.4498 32.7262 12.5233 32.7763 12.5941C32.8592 12.7113 32.7928 12.8355 32.6472 12.8484C32.3697 12.873 32.0911 12.8867 31.813 12.9041C31.4677 12.9257 31.1166 12.9145 30.7787 12.9762C30.427 13.0405 30.0681 12.9968 29.726 13.0712C29.4131 13.1392 29.1018 13.1035 28.7931 13.1421C28.6024 13.166 28.4183 13.239 28.229 13.2796C28.1289 13.301 28.0217 13.2899 27.9217 13.3117C27.7235 13.3549 27.5214 13.3932 27.3331 13.4653C27.0284 13.582 26.8001 13.8018 26.5952 14.0548C26.3109 14.4057 26.1287 14.8133 25.9324 15.2112C25.7913 15.4973 25.7018 15.8086 25.5842 16.1067C25.5142 16.2838 25.4202 16.4526 25.3627 16.6333C25.287 16.8706 25.2382 17.1164 25.1747 17.3577C25.1476 17.4606 25.1019 17.5594 25.0829 17.6634C25.0441 17.8757 25.0457 18.0994 24.9799 18.302C24.8607 18.6689 24.9194 19.0422 24.8991 19.4116C24.8832 19.7023 24.9238 19.9957 24.9204 20.2877C24.9161 20.664 24.8872 21.0387 24.7662 21.4008C24.6957 21.6117 24.67 21.8436 24.5687 22.0371C24.3669 22.4228 24.1588 22.8036 23.8657 23.1403C23.6689 23.3664 23.4806 23.6003 23.2541 23.7948C23.0198 23.996 22.7692 24.1799 22.5144 24.3548C22.2623 24.5279 21.9972 24.6824 21.7351 24.8405C21.6669 24.8817 21.5878 24.9045 21.5148 24.9383C21.3675 25.0065 21.35 25.0569 21.4472 25.1871C21.624 25.4241 21.811 25.6534 21.9881 25.8901C22.3729 26.4045 22.8876 26.7723 23.4026 27.1372C23.601 27.2778 23.823 27.3858 24.0369 27.5039C24.3014 27.65 24.3149 27.9722 24.179 28.1755C24.0577 28.357 23.9633 28.5565 23.8572 28.7481C23.6949 29.0412 23.5352 29.3357 23.3697 29.6269C23.2268 29.8785 23.0436 30.1132 22.9404 30.3795C22.8383 30.6429 22.6625 30.8588 22.5516 31.1144C22.4566 31.3333 22.3007 31.5252 22.1958 31.7407C22.1011 31.9353 21.9986 32.1197 21.8417 32.2697C21.8137 32.2965 21.7747 32.3232 21.738 32.3278C21.49 32.3587 21.3412 32.1933 21.1998 32.0331C20.9449 31.7443 20.6891 31.455 20.455 31.1496C20.2612 30.8969 20.0931 30.6239 19.9226 30.3541C19.7735 30.118 19.6285 29.8785 19.4969 29.6324C19.3039 29.2717 19.1137 28.9087 18.9438 28.5369C18.8586 28.3505 18.8221 28.142 18.7613 27.9442C18.6819 27.6859 18.5868 27.4315 18.5224 27.1696C18.4074 26.7018 18.3038 26.2318 18.3075 25.7438C18.3098 25.4392 18.2649 25.1342 18.2694 24.8298C18.2757 24.4052 18.2907 23.979 18.3353 23.557C18.371 23.2191 18.4456 22.8839 18.5231 22.5522C18.5852 22.2866 18.6799 22.0287 18.756 21.7661C18.8173 21.5548 18.8662 21.3398 18.9332 21.1304C18.9617 21.0415 19.0226 20.9629 19.0741 20.8699C18.7529 20.8249 18.4478 20.7852 18.1438 20.738C18.0435 20.7225 17.9442 20.6933 17.8477 20.6608C17.6482 20.5934 17.4506 20.5201 17.2525 20.4483C17.0907 20.3898 16.9255 20.3388 16.7689 20.2684C16.5477 20.169 16.3274 20.0647 16.1168 19.9447C15.772 19.7481 15.4229 19.5548 15.0988 19.3273C14.7744 19.0996 14.4739 18.8368 14.1711 18.5798C13.9049 18.354 13.6403 18.1245 13.3929 17.8786C13.1816 17.6685 12.9978 17.4309 12.7977 17.2091C12.5946 16.984 12.3772 16.7713 12.183 16.5389C11.9597 16.2716 11.7557 15.9882 11.5422 15.7126C11.3266 15.4342 11.103 15.1617 10.8957 14.8773C10.7582 14.6887 10.6468 14.4813 10.5171 14.2867C10.3133 13.9808 10.0962 13.6835 9.89921 13.3734C9.71022 13.076 9.53608 12.7689 9.36275 12.462C9.29908 12.3492 9.24086 12.2288 9.20754 12.1045C9.14717 11.8793 9.22156 11.7995 9.45322 11.8142C10.0365 11.8511 10.6202 11.8826 11.2027 11.9289C11.4559 11.949 11.7067 12.0009 11.9587 12.0372C12.0768 12.0542 12.195 12.0717 12.3137 12.0832C12.6586 12.1165 13.0042 12.1424 13.3486 12.1797C13.7689 12.2254 14.1882 12.2813 14.6082 12.3297C14.9215 12.3659 15.2372 12.3856 15.5486 12.4335C15.9679 12.498 16.3838 12.5845 16.8018 12.6579C17.1635 12.7214 17.5265 12.7775 17.888 12.8418C18.0241 12.866 18.1583 12.9021 18.2923 12.9364C18.5383 12.9994 18.7839 13.0644 19.0292 13.13C19.2595 13.1916 19.4921 13.2467 19.7187 13.32C19.9452 13.3932 20.1658 13.4848 20.3885 13.5694C20.689 13.6835 20.9918 13.7924 21.2883 13.9164C21.4196 13.9713 21.5364 14.0603 21.6631 14.1278C21.691 14.1427 21.7481 14.1482 21.7653 14.1312C21.9557 13.9435 22.1491 13.758 22.3256 13.5576C22.6973 13.1355 23.1257 12.7758 23.5765 12.4471C23.8279 12.2639 24.1246 12.1428 24.4013 11.9945C24.448 11.9695 24.4969 11.9488 24.5589 11.9261ZM12.9537 12.8706C12.9233 12.8503 12.8938 12.814 12.8624 12.8122C12.5818 12.7962 12.3044 12.7806 12.0251 12.7236C11.73 12.6634 11.4205 12.6772 11.1186 12.6459C10.8597 12.619 10.6028 12.5724 10.3444 12.5388C10.3077 12.534 10.2582 12.5429 10.2329 12.5657C10.2181 12.5789 10.2281 12.6404 10.2465 12.6667C10.3829 12.8618 10.5318 13.0486 10.6625 13.2474C10.9293 13.6534 11.1782 14.0713 11.4519 14.4724C11.636 14.7423 11.846 14.9951 12.0513 15.2499C12.3815 15.6598 12.7061 16.075 13.0541 16.4694C13.4101 16.8731 13.7814 17.2648 14.1645 17.6429C14.5206 17.9943 14.8923 18.3311 15.3093 18.6132C15.6229 18.8253 15.9234 19.0581 16.2461 19.2549C16.4851 19.4008 16.7466 19.5123 17.005 19.6232C17.2393 19.7238 17.4829 19.803 17.7224 19.8915C18.1178 20.0375 18.5251 20.1296 18.9469 20.1421C19.5828 20.1608 20.2205 20.2095 20.8498 20.0606C20.9447 20.0381 21.045 20.0384 21.1401 20.0162C21.692 19.8876 22.2311 19.7197 22.7384 19.4625C23.0765 19.2911 23.4031 19.1009 23.6762 18.8327C23.8171 18.6944 23.9584 18.5563 24.0927 18.4118C24.2931 18.1963 24.3689 17.9354 24.2553 17.6643C24.0788 17.2432 23.8145 16.8709 23.5136 16.5285C23.2866 16.2702 23.0474 16.0223 22.8083 15.775C22.4758 15.4311 22.0865 15.1571 21.6792 14.9129C21.211 14.6323 20.7136 14.4068 20.2036 14.212C19.98 14.1266 19.7537 14.0467 19.5245 13.9785C19.1845 13.8774 18.8418 13.7849 18.4983 13.6964C18.1867 13.6162 17.8732 13.543 17.5591 13.4731C17.4002 13.4377 17.238 13.4176 17.0776 13.3887C16.7688 13.333 16.4607 13.2729 16.1512 13.2207C15.9321 13.1838 15.7118 13.1535 15.4912 13.127C15.3927 13.1152 15.2911 13.1291 15.193 13.1158C14.8532 13.07 14.5149 13.0132 14.175 12.9687C13.8784 12.9298 13.5807 12.899 13.2829 12.8709C13.1834 12.8615 13.0821 12.8712 12.9537 12.8706ZM21.1658 30.9299C21.3029 31.0951 21.44 31.2603 21.5762 31.4245C21.7421 31.1377 21.9034 30.8691 22.0542 30.5947C22.1897 30.3481 22.3063 30.091 22.4446 29.846C22.5992 29.572 22.772 29.3084 22.9309 29.0368C23.0678 28.8026 23.1978 28.5644 23.3281 28.3265C23.3883 28.2166 23.4419 28.1032 23.4985 27.9915C23.4181 27.9515 23.332 27.9199 23.2584 27.8699C23.0655 27.7388 22.875 27.6037 22.6892 27.4627C22.4744 27.2998 22.2615 27.1337 22.056 26.9593C21.9345 26.8562 21.8317 26.7313 21.7155 26.6215C21.4072 26.3303 21.146 25.9971 20.9232 25.6418C20.7061 25.2956 20.5248 24.9242 20.3571 24.5507C20.1901 24.1785 20.0683 23.788 19.9993 23.3825C19.9569 23.1332 19.8694 22.8892 19.8495 22.6391C19.8095 22.1342 19.8016 21.6267 19.7809 21.1202C19.7792 21.0773 19.7807 21.0342 19.7807 20.9911C19.6772 21.1656 19.6209 21.354 19.5336 21.5269C19.4681 21.6565 19.4745 21.7985 19.4131 21.9321C19.3144 22.1466 19.2652 22.3875 19.2203 22.6221C19.1538 22.9698 19.1074 23.3214 19.0565 23.6719C19.0386 23.7947 19.0344 23.9194 19.0213 24.0429C18.992 24.3196 18.9348 24.5963 18.9375 24.8725C18.9409 25.2173 19.0053 25.5611 19.0213 25.9064C19.0448 26.4134 19.1547 26.9008 19.2928 27.3866C19.4136 27.8118 19.5476 28.2291 19.7704 28.6134C19.7778 28.6262 19.7754 28.6444 19.7815 28.6584C19.8462 28.8089 19.9017 28.9645 19.9793 29.1082C20.1055 29.342 20.2427 29.5701 20.3819 29.7966C20.502 29.992 20.6275 30.1843 20.7575 30.3733C20.8836 30.5564 21.0185 30.7334 21.1658 30.9299ZM21.4791 20.6462C21.1469 20.7081 20.8148 20.7699 20.4753 20.8332C20.4753 20.8993 20.4734 20.9513 20.4756 21.003C20.4973 21.5163 20.5195 22.0296 20.5425 22.5429C20.5453 22.6053 20.5465 22.6692 20.5611 22.7293C20.6352 23.033 20.7097 23.3366 20.7913 23.6382C20.8501 23.8551 20.9168 24.07 20.9872 24.2834C21.0132 24.362 21.0532 24.4181 21.1601 24.354C21.3548 24.2371 21.5642 24.1447 21.7594 24.0286C22.1055 23.8226 22.429 23.5889 22.7356 23.3222C23.0396 23.0578 23.3177 22.7779 23.536 22.4439C23.6727 22.2348 23.7563 21.991 23.8928 21.7817C24.0927 21.4749 24.1102 21.1204 24.1942 20.7834C24.2223 20.6704 24.2263 20.5498 24.2291 20.4325C24.238 20.0507 24.2413 19.6687 24.2472 19.2543C24.0706 19.4087 23.9485 19.5625 23.7893 19.645C23.4446 19.8236 23.1537 20.0956 22.7645 20.2004C22.4895 20.2744 22.2302 20.4053 21.9609 20.5023C21.8115 20.5562 21.6558 20.5927 21.4791 20.6462ZM23.2214 15.2244C23.5155 15.5361 23.8181 15.8403 24.1004 16.1622C24.2834 16.3708 24.4368 16.6052 24.5995 16.8228C24.6068 16.7894 24.6109 16.7475 24.6249 16.7092C24.7864 16.2707 24.9351 15.8267 25.1162 15.3964C25.2709 15.0289 25.3891 14.6434 25.6336 14.3153C25.7877 14.1086 25.9025 13.873 26.0503 13.661C26.3511 13.2293 26.7301 12.9038 27.2748 12.8205C27.2377 12.8135 27.2019 12.8112 27.1661 12.8098C26.7158 12.7915 26.2613 12.8547 25.8195 12.6921C25.6568 12.6323 25.4689 12.6395 25.2919 12.621C25.1536 12.6066 25.0088 12.5712 24.877 12.5969C24.7052 12.6304 24.5435 12.7153 24.3774 12.7778C23.9811 12.927 23.6876 13.2305 23.3641 13.4812C22.9803 13.7786 22.6398 14.1319 22.2872 14.455C22.6346 14.7396 22.9199 14.9734 23.2214 15.2244ZM28.625 12.8104C28.6781 12.8068 28.7312 12.8033 28.7843 12.7998C28.5733 12.6982 28.3662 12.6892 28.1602 12.7632C28.1602 12.779 28.1603 12.7947 28.1604 12.8105C28.3059 12.8105 28.4515 12.8105 28.625 12.8104Z" fill="black"></path>
</svg><style>@media (prefers-color-scheme: light) { :root { filter: none; } }
@media (prefers-color-scheme: dark) { :root { filter: none; } }
</style></svg>