<svg xmlns="http://www.w3.org/2000/svg" version="1.1" xmlns:xlink="http://www.w3.org/1999/xlink" xmlns:svgjs="http://svgjs.dev/svgjs" width="1000" height="1000"><style>
    #light-icon {
      display: inline;
    }
    #dark-icon {
      display: none;
    }

    @media (prefers-color-scheme: dark) {
      #light-icon {
        display: none;
      }
      #dark-icon {
        display: inline;
      }
    }
  </style><g id="light-icon"><svg xmlns="http://www.w3.org/2000/svg" version="1.1" xmlns:xlink="http://www.w3.org/1999/xlink" xmlns:svgjs="http://svgjs.dev/svgjs" width="1000" height="1000"><g><g transform="matrix(0.9765625,0,0,0.9765625,0,0)"><svg xmlns="http://www.w3.org/2000/svg" version="1.1" xmlns:xlink="http://www.w3.org/1999/xlink" xmlns:svgjs="http://svgjs.dev/svgjs" width="1024" height="1024"><svg width="1024" height="1024" viewBox="0 0 1024 1024" fill="none" xmlns="http://www.w3.org/2000/svg">
<g clip-path="url(#clip0_167_19)">
<path d="M642.214 166.094C651.13 166.093 659.6 165.524 667.954 166.26C675.644 166.938 683.209 169.023 690.83 170.482C692.607 170.823 694.377 171.275 696.172 171.441C709.129 172.639 722.079 173.959 735.057 174.885C748.448 175.841 761.863 176.48 775.275 177.102C786.024 177.599 796.789 177.739 807.535 178.264C819.674 178.858 831.793 179.834 843.932 180.41C861.952 181.264 879.982 181.894 898.006 182.655C906.006 182.993 914.063 182.975 921.97 184.039C924.807 184.421 928.004 186.994 929.758 189.472C932.66 193.573 930.337 197.916 925.242 198.368C915.529 199.229 905.783 199.71 896.049 200.318C883.968 201.073 871.681 200.681 859.86 202.84C847.551 205.089 834.991 203.562 823.022 206.164C812.073 208.545 801.178 207.296 790.377 208.648C783.703 209.482 777.262 212.037 770.638 213.456C767.135 214.207 763.385 213.818 759.886 214.58C752.951 216.092 745.877 217.432 739.287 219.955C728.625 224.038 720.639 231.729 713.467 240.583C703.519 252.864 697.143 267.126 690.274 281.05C685.336 291.061 682.205 301.954 678.089 312.383C675.642 318.583 672.352 324.488 670.338 330.811C667.692 339.116 665.984 347.717 663.76 356.16C662.811 359.76 661.214 363.218 660.549 366.856C659.191 374.286 659.247 382.114 656.945 389.202C652.772 402.043 654.827 415.104 654.118 428.029C653.56 438.202 654.98 448.469 654.864 458.687C654.713 471.856 653.702 484.966 649.466 497.636C646.998 505.018 646.1 513.132 642.557 519.901C635.493 533.398 628.212 546.723 617.957 558.506C611.07 566.419 604.481 574.602 596.554 581.409C588.357 588.448 579.588 594.884 570.671 601.005C561.849 607.062 552.573 612.468 543.401 618.001C541.013 619.441 538.246 620.241 535.694 621.423C530.539 623.81 529.924 625.573 533.325 630.13C539.512 638.42 546.056 646.444 552.253 654.727C565.72 672.726 583.729 685.598 601.749 698.368C608.693 703.288 616.462 707.065 623.945 711.199C633.203 716.312 633.674 727.585 628.918 734.699C624.673 741.05 621.372 748.031 617.658 754.737C611.979 764.992 606.391 775.298 600.601 785.489C595.6 794.291 589.19 802.505 585.578 811.822C582.005 821.04 575.852 828.594 571.972 837.537C568.648 845.198 563.192 851.912 559.521 859.455C556.207 866.265 552.621 872.718 547.132 877.966C546.151 878.903 544.787 879.837 543.504 879.997C534.823 881.078 529.617 875.291 524.67 869.687C515.75 859.582 506.801 849.457 498.606 838.772C491.824 829.929 485.942 820.374 479.979 810.934C474.76 802.674 469.687 794.292 465.08 785.68C458.328 773.058 451.673 760.355 445.726 747.344C442.746 740.822 441.468 733.527 439.341 726.607C436.561 717.567 433.234 708.666 430.981 699.5C426.956 683.13 423.334 666.686 423.462 649.608C423.541 638.951 421.971 628.278 422.129 617.626C422.348 602.767 422.873 587.855 424.433 573.089C425.683 561.264 428.293 549.535 431.007 537.929C433.18 528.633 436.492 519.607 439.156 510.42C441.299 503.027 443.011 495.501 445.358 488.177C446.355 485.064 448.483 482.313 450.285 479.059C439.046 477.486 428.37 476.094 417.734 474.445C414.223 473.9 410.75 472.881 407.374 471.742C400.389 469.386 393.476 466.819 386.545 464.308C380.885 462.258 375.101 460.475 369.623 458.013C361.881 454.534 354.172 450.885 346.805 446.685C334.739 439.805 322.524 433.043 311.18 425.081C299.829 417.114 289.316 407.917 278.72 398.925C269.405 391.021 260.147 382.991 251.49 374.387C244.093 367.036 237.663 358.72 230.662 350.961C223.555 343.084 215.946 335.64 209.153 327.508C201.338 318.154 194.197 308.238 186.727 298.594C179.182 288.853 171.359 279.317 164.104 269.366C159.292 262.766 155.396 255.508 150.859 248.698C143.727 237.994 136.131 227.592 129.236 216.741C122.623 206.334 116.529 195.588 110.464 184.847C108.236 180.901 106.199 176.686 105.033 172.337C102.92 164.459 105.523 161.665 113.63 162.179C134.039 163.472 154.464 164.572 174.847 166.193C183.71 166.898 192.483 168.713 201.302 169.982C205.435 170.576 209.571 171.189 213.725 171.591C225.792 172.759 237.886 173.663 249.937 174.971C264.646 176.567 279.316 178.524 294.016 180.22C304.979 181.484 316.024 182.174 326.921 183.85C341.594 186.106 356.146 189.133 370.773 191.702C383.429 193.925 396.132 195.887 408.784 198.138C413.545 198.986 418.239 200.247 422.931 201.448C431.539 203.653 440.13 205.926 448.715 208.221C456.776 210.377 464.913 212.307 472.844 214.871C480.769 217.433 488.487 220.637 496.281 223.597C506.797 227.592 517.392 231.402 527.766 235.74C532.362 237.662 536.45 240.775 540.88 243.138C541.859 243.66 543.856 243.85 544.46 243.255C551.12 236.69 557.89 230.198 564.063 223.186C577.069 208.415 592.062 195.828 607.837 184.328C616.633 177.916 627.016 173.678 636.699 168.49C638.331 167.615 640.042 166.889 642.214 166.094ZM236.118 199.147C235.055 198.436 234.024 197.166 232.925 197.103C223.107 196.542 213.398 195.995 203.626 194.001C193.301 191.894 182.47 192.379 171.907 191.283C162.845 190.342 153.856 188.712 144.816 187.536C143.528 187.369 141.799 187.677 140.911 188.475C140.394 188.94 140.746 191.092 141.387 192.009C146.162 198.838 151.372 205.375 155.945 212.332C165.282 226.536 173.992 241.16 183.568 255.198C190.01 264.642 197.358 273.485 204.543 282.403C216.098 296.744 227.457 311.273 239.632 325.077C252.091 339.204 265.082 352.907 278.489 366.139C290.951 378.436 303.956 390.222 318.549 400.092C329.522 407.514 340.038 415.659 351.328 422.548C359.692 427.652 368.844 431.555 377.884 435.435C386.084 438.955 394.606 441.726 402.989 444.821C416.823 449.931 431.074 453.156 445.834 453.591C468.088 454.247 490.4 455.95 512.422 450.74C515.744 449.953 519.254 449.962 522.579 449.187C541.894 444.686 560.756 438.812 578.508 429.813C590.338 423.815 601.768 417.159 611.326 407.773C616.254 402.934 621.2 398.102 625.9 393.045C632.91 385.503 635.564 376.376 631.588 366.89C625.412 352.152 616.166 339.125 605.635 327.144C597.69 318.106 589.323 309.431 580.955 300.777C569.32 288.743 555.698 279.154 541.445 270.61C525.063 260.791 507.657 252.9 489.809 246.083C481.987 243.095 474.069 240.299 466.047 237.913C454.15 234.376 442.159 231.138 430.139 228.042C419.236 225.235 408.265 222.674 397.274 220.228C391.714 218.991 386.038 218.285 380.426 217.274C369.618 215.327 358.837 213.223 348.008 211.398C340.342 210.105 332.631 209.045 324.912 208.119C321.467 207.706 317.91 208.19 314.477 207.727C302.588 206.123 290.75 204.135 278.855 202.577C268.477 201.218 258.059 200.14 247.638 199.155C244.158 198.826 240.614 199.166 236.118 199.147ZM523.48 831.082C528.277 836.863 533.074 842.645 537.842 848.391C543.645 838.353 549.29 828.955 554.566 819.354C559.308 810.724 563.39 801.727 568.229 793.154C573.639 783.568 579.684 774.342 585.244 764.837C590.036 756.645 594.584 748.307 599.144 739.982C601.249 736.139 603.125 732.171 605.105 728.26C602.292 726.861 599.28 725.754 596.705 724.005C589.955 719.418 583.288 714.692 576.787 709.758C569.272 704.055 561.822 698.246 554.631 692.143C550.378 688.535 546.783 684.164 542.716 680.322C531.929 670.133 522.786 658.472 514.99 646.038C507.395 633.925 501.049 620.93 495.183 607.86C489.337 594.837 485.077 581.17 482.662 566.98C481.177 558.259 478.114 549.721 477.42 540.969C476.018 523.3 475.744 505.541 475.02 487.818C474.958 486.315 475.011 484.808 475.011 483.302C471.391 489.405 469.42 496.001 466.364 502.049C464.073 506.584 464.299 511.552 462.147 516.23C458.696 523.734 456.974 532.165 455.403 540.373C453.075 552.538 451.45 564.842 449.669 577.108C449.045 581.404 448.897 585.768 448.439 590.091C447.414 599.771 445.411 609.454 445.506 619.12C445.624 631.186 447.88 643.216 448.439 655.297C449.261 673.039 453.107 690.095 457.938 707.094C462.166 721.973 466.856 736.576 474.652 750.024C474.911 750.472 474.828 751.106 475.039 751.596C477.304 756.864 479.248 762.308 481.962 767.337C486.378 775.518 491.18 783.501 496.05 791.425C500.251 798.263 504.643 804.994 509.194 811.604C513.605 818.012 518.327 824.206 523.48 831.082ZM534.444 471.23C522.82 473.396 511.196 475.562 499.317 477.775C499.317 480.09 499.251 481.907 499.328 483.717C500.089 501.68 500.863 519.642 501.668 537.602C501.766 539.785 501.809 542.022 502.322 544.126C504.912 554.751 507.519 565.374 510.377 575.929C512.432 583.517 514.767 591.037 517.23 598.504C518.139 601.258 519.542 603.22 523.28 600.976C530.094 596.887 537.421 593.654 544.251 589.589C556.362 582.381 567.683 574.202 578.411 564.872C589.048 555.621 598.78 545.824 606.419 534.139C611.203 526.821 614.128 518.289 618.903 510.964C625.9 500.231 626.512 487.826 629.451 476.033C630.436 472.08 630.575 467.86 630.672 463.753C630.984 450.392 631.098 437.028 631.304 422.525C625.127 427.927 620.853 433.311 615.284 436.197C603.221 442.449 593.043 451.965 579.422 455.631C569.8 458.221 560.727 462.801 551.302 466.197C546.073 468.081 540.626 469.359 534.444 471.23ZM595.412 281.512C605.7 292.419 616.289 303.063 626.17 314.327C632.572 321.624 637.94 329.827 643.634 337.441C643.887 336.274 644.03 334.807 644.523 333.469C650.172 318.123 655.375 302.586 661.713 287.529C667.126 274.671 671.262 261.181 679.82 249.7C685.213 242.466 689.228 234.22 694.398 226.802C704.926 211.699 718.188 200.309 737.247 197.391C735.951 197.149 734.698 197.067 733.444 197.016C717.689 196.377 701.785 198.589 686.322 192.9C680.632 190.806 674.054 191.057 667.863 190.413C663.021 189.909 657.955 188.669 653.343 189.569C647.333 190.741 641.674 193.711 635.861 195.899C621.993 201.118 611.725 211.738 600.403 220.512C586.973 230.918 575.06 243.282 562.721 254.586C574.875 264.545 584.86 272.726 595.412 281.512ZM784.495 197.038C786.353 196.914 788.212 196.79 790.07 196.667C782.686 193.112 775.44 192.797 768.229 195.387C768.232 195.939 768.235 196.491 768.238 197.042C773.33 197.042 778.423 197.042 784.495 197.038Z" fill="#197CBC"></path>
</g>
<defs>
<clipPath id="clip0_167_19">
<rect width="840" height="757" fill="white" transform="translate(92 133)"></rect>
</clipPath>
</defs>
</svg></svg></g></g></svg></g><g id="dark-icon"><svg xmlns="http://www.w3.org/2000/svg" version="1.1" xmlns:xlink="http://www.w3.org/1999/xlink" xmlns:svgjs="http://svgjs.dev/svgjs" width="1000" height="1000"><g clip-path="url(#SvgjsClipPath1057)"><rect width="1000" height="1000" fill="#ffffff"></rect><g transform="matrix(0.68359375,0,0,0.68359375,150,150)"><svg xmlns="http://www.w3.org/2000/svg" version="1.1" xmlns:xlink="http://www.w3.org/1999/xlink" xmlns:svgjs="http://svgjs.dev/svgjs" width="1024" height="1024"><svg width="1024" height="1024" viewBox="0 0 1024 1024" fill="none" xmlns="http://www.w3.org/2000/svg">
<g clip-path="url(#clip0_167_19)">
<path d="M642.214 166.094C651.13 166.093 659.6 165.524 667.954 166.26C675.644 166.938 683.209 169.023 690.83 170.482C692.607 170.823 694.377 171.275 696.172 171.441C709.129 172.639 722.079 173.959 735.057 174.885C748.448 175.841 761.863 176.48 775.275 177.102C786.024 177.599 796.789 177.739 807.535 178.264C819.674 178.858 831.793 179.834 843.932 180.41C861.952 181.264 879.982 181.894 898.006 182.655C906.006 182.993 914.063 182.975 921.97 184.039C924.807 184.421 928.004 186.994 929.758 189.472C932.66 193.573 930.337 197.916 925.242 198.368C915.529 199.229 905.783 199.71 896.049 200.318C883.968 201.073 871.681 200.681 859.86 202.84C847.551 205.089 834.991 203.562 823.022 206.164C812.073 208.545 801.178 207.296 790.377 208.648C783.703 209.482 777.262 212.037 770.638 213.456C767.135 214.207 763.385 213.818 759.886 214.58C752.951 216.092 745.877 217.432 739.287 219.955C728.625 224.038 720.639 231.729 713.467 240.583C703.519 252.864 697.143 267.126 690.274 281.05C685.336 291.061 682.205 301.954 678.089 312.383C675.642 318.583 672.352 324.488 670.338 330.811C667.692 339.116 665.984 347.717 663.76 356.16C662.811 359.76 661.214 363.218 660.549 366.856C659.191 374.286 659.247 382.114 656.945 389.202C652.772 402.043 654.827 415.104 654.118 428.029C653.56 438.202 654.98 448.469 654.864 458.687C654.713 471.856 653.702 484.966 649.466 497.636C646.998 505.018 646.1 513.132 642.557 519.901C635.493 533.398 628.212 546.723 617.957 558.506C611.07 566.419 604.481 574.602 596.554 581.409C588.357 588.448 579.588 594.884 570.671 601.005C561.849 607.062 552.573 612.468 543.401 618.001C541.013 619.441 538.246 620.241 535.694 621.423C530.539 623.81 529.924 625.573 533.325 630.13C539.512 638.42 546.056 646.444 552.253 654.727C565.72 672.726 583.729 685.598 601.749 698.368C608.693 703.288 616.462 707.065 623.945 711.199C633.203 716.312 633.674 727.585 628.918 734.699C624.673 741.05 621.372 748.031 617.658 754.737C611.979 764.992 606.391 775.298 600.601 785.489C595.6 794.291 589.19 802.505 585.578 811.822C582.005 821.04 575.852 828.594 571.972 837.537C568.648 845.198 563.192 851.912 559.521 859.455C556.207 866.265 552.621 872.718 547.132 877.966C546.151 878.903 544.787 879.837 543.504 879.997C534.823 881.078 529.617 875.291 524.67 869.687C515.75 859.582 506.801 849.457 498.606 838.772C491.824 829.929 485.942 820.374 479.979 810.934C474.76 802.674 469.687 794.292 465.08 785.68C458.328 773.058 451.673 760.355 445.726 747.344C442.746 740.822 441.468 733.527 439.341 726.607C436.561 717.567 433.234 708.666 430.981 699.5C426.956 683.13 423.334 666.686 423.462 649.608C423.541 638.951 421.971 628.278 422.129 617.626C422.348 602.767 422.873 587.855 424.433 573.089C425.683 561.264 428.293 549.535 431.007 537.929C433.18 528.633 436.492 519.607 439.156 510.42C441.299 503.027 443.011 495.501 445.358 488.177C446.355 485.064 448.483 482.313 450.285 479.059C439.046 477.486 428.37 476.094 417.734 474.445C414.223 473.9 410.75 472.881 407.374 471.742C400.389 469.386 393.476 466.819 386.545 464.308C380.885 462.258 375.101 460.475 369.623 458.013C361.881 454.534 354.172 450.885 346.805 446.685C334.739 439.805 322.524 433.043 311.18 425.081C299.829 417.114 289.316 407.917 278.72 398.925C269.405 391.021 260.147 382.991 251.49 374.387C244.093 367.036 237.663 358.72 230.662 350.961C223.555 343.084 215.946 335.64 209.153 327.508C201.338 318.154 194.197 308.238 186.727 298.594C179.182 288.853 171.359 279.317 164.104 269.366C159.292 262.766 155.396 255.508 150.859 248.698C143.727 237.994 136.131 227.592 129.236 216.741C122.623 206.334 116.529 195.588 110.464 184.847C108.236 180.901 106.199 176.686 105.033 172.337C102.92 164.459 105.523 161.665 113.63 162.179C134.039 163.472 154.464 164.572 174.847 166.193C183.71 166.898 192.483 168.713 201.302 169.982C205.435 170.576 209.571 171.189 213.725 171.591C225.792 172.759 237.886 173.663 249.937 174.971C264.646 176.567 279.316 178.524 294.016 180.22C304.979 181.484 316.024 182.174 326.921 183.85C341.594 186.106 356.146 189.133 370.773 191.702C383.429 193.925 396.132 195.887 408.784 198.138C413.545 198.986 418.239 200.247 422.931 201.448C431.539 203.653 440.13 205.926 448.715 208.221C456.776 210.377 464.913 212.307 472.844 214.871C480.769 217.433 488.487 220.637 496.281 223.597C506.797 227.592 517.392 231.402 527.766 235.74C532.362 237.662 536.45 240.775 540.88 243.138C541.859 243.66 543.856 243.85 544.46 243.255C551.12 236.69 557.89 230.198 564.063 223.186C577.069 208.415 592.062 195.828 607.837 184.328C616.633 177.916 627.016 173.678 636.699 168.49C638.331 167.615 640.042 166.889 642.214 166.094ZM236.118 199.147C235.055 198.436 234.024 197.166 232.925 197.103C223.107 196.542 213.398 195.995 203.626 194.001C193.301 191.894 182.47 192.379 171.907 191.283C162.845 190.342 153.856 188.712 144.816 187.536C143.528 187.369 141.799 187.677 140.911 188.475C140.394 188.94 140.746 191.092 141.387 192.009C146.162 198.838 151.372 205.375 155.945 212.332C165.282 226.536 173.992 241.16 183.568 255.198C190.01 264.642 197.358 273.485 204.543 282.403C216.098 296.744 227.457 311.273 239.632 325.077C252.091 339.204 265.082 352.907 278.489 366.139C290.951 378.436 303.956 390.222 318.549 400.092C329.522 407.514 340.038 415.659 351.328 422.548C359.692 427.652 368.844 431.555 377.884 435.435C386.084 438.955 394.606 441.726 402.989 444.821C416.823 449.931 431.074 453.156 445.834 453.591C468.088 454.247 490.4 455.95 512.422 450.74C515.744 449.953 519.254 449.962 522.579 449.187C541.894 444.686 560.756 438.812 578.508 429.813C590.338 423.815 601.768 417.159 611.326 407.773C616.254 402.934 621.2 398.102 625.9 393.045C632.91 385.503 635.564 376.376 631.588 366.89C625.412 352.152 616.166 339.125 605.635 327.144C597.69 318.106 589.323 309.431 580.955 300.777C569.32 288.743 555.698 279.154 541.445 270.61C525.063 260.791 507.657 252.9 489.809 246.083C481.987 243.095 474.069 240.299 466.047 237.913C454.15 234.376 442.159 231.138 430.139 228.042C419.236 225.235 408.265 222.674 397.274 220.228C391.714 218.991 386.038 218.285 380.426 217.274C369.618 215.327 358.837 213.223 348.008 211.398C340.342 210.105 332.631 209.045 324.912 208.119C321.467 207.706 317.91 208.19 314.477 207.727C302.588 206.123 290.75 204.135 278.855 202.577C268.477 201.218 258.059 200.14 247.638 199.155C244.158 198.826 240.614 199.166 236.118 199.147ZM523.48 831.082C528.277 836.863 533.074 842.645 537.842 848.391C543.645 838.353 549.29 828.955 554.566 819.354C559.308 810.724 563.39 801.727 568.229 793.154C573.639 783.568 579.684 774.342 585.244 764.837C590.036 756.645 594.584 748.307 599.144 739.982C601.249 736.139 603.125 732.171 605.105 728.26C602.292 726.861 599.28 725.754 596.705 724.005C589.955 719.418 583.288 714.692 576.787 709.758C569.272 704.055 561.822 698.246 554.631 692.143C550.378 688.535 546.783 684.164 542.716 680.322C531.929 670.133 522.786 658.472 514.99 646.038C507.395 633.925 501.049 620.93 495.183 607.86C489.337 594.837 485.077 581.17 482.662 566.98C481.177 558.259 478.114 549.721 477.42 540.969C476.018 523.3 475.744 505.541 475.02 487.818C474.958 486.315 475.011 484.808 475.011 483.302C471.391 489.405 469.42 496.001 466.364 502.049C464.073 506.584 464.299 511.552 462.147 516.23C458.696 523.734 456.974 532.165 455.403 540.373C453.075 552.538 451.45 564.842 449.669 577.108C449.045 581.404 448.897 585.768 448.439 590.091C447.414 599.771 445.411 609.454 445.506 619.12C445.624 631.186 447.88 643.216 448.439 655.297C449.261 673.039 453.107 690.095 457.938 707.094C462.166 721.973 466.856 736.576 474.652 750.024C474.911 750.472 474.828 751.106 475.039 751.596C477.304 756.864 479.248 762.308 481.962 767.337C486.378 775.518 491.18 783.501 496.05 791.425C500.251 798.263 504.643 804.994 509.194 811.604C513.605 818.012 518.327 824.206 523.48 831.082ZM534.444 471.23C522.82 473.396 511.196 475.562 499.317 477.775C499.317 480.09 499.251 481.907 499.328 483.717C500.089 501.68 500.863 519.642 501.668 537.602C501.766 539.785 501.809 542.022 502.322 544.126C504.912 554.751 507.519 565.374 510.377 575.929C512.432 583.517 514.767 591.037 517.23 598.504C518.139 601.258 519.542 603.22 523.28 600.976C530.094 596.887 537.421 593.654 544.251 589.589C556.362 582.381 567.683 574.202 578.411 564.872C589.048 555.621 598.78 545.824 606.419 534.139C611.203 526.821 614.128 518.289 618.903 510.964C625.9 500.231 626.512 487.826 629.451 476.033C630.436 472.08 630.575 467.86 630.672 463.753C630.984 450.392 631.098 437.028 631.304 422.525C625.127 427.927 620.853 433.311 615.284 436.197C603.221 442.449 593.043 451.965 579.422 455.631C569.8 458.221 560.727 462.801 551.302 466.197C546.073 468.081 540.626 469.359 534.444 471.23ZM595.412 281.512C605.7 292.419 616.289 303.063 626.17 314.327C632.572 321.624 637.94 329.827 643.634 337.441C643.887 336.274 644.03 334.807 644.523 333.469C650.172 318.123 655.375 302.586 661.713 287.529C667.126 274.671 671.262 261.181 679.82 249.7C685.213 242.466 689.228 234.22 694.398 226.802C704.926 211.699 718.188 200.309 737.247 197.391C735.951 197.149 734.698 197.067 733.444 197.016C717.689 196.377 701.785 198.589 686.322 192.9C680.632 190.806 674.054 191.057 667.863 190.413C663.021 189.909 657.955 188.669 653.343 189.569C647.333 190.741 641.674 193.711 635.861 195.899C621.993 201.118 611.725 211.738 600.403 220.512C586.973 230.918 575.06 243.282 562.721 254.586C574.875 264.545 584.86 272.726 595.412 281.512ZM784.495 197.038C786.353 196.914 788.212 196.79 790.07 196.667C782.686 193.112 775.44 192.797 768.229 195.387C768.232 195.939 768.235 196.491 768.238 197.042C773.33 197.042 778.423 197.042 784.495 197.038Z" fill="#197CBC"></path>
</g>
<defs>
<clipPath id="clip0_167_19">
<rect width="840" height="757" fill="white" transform="translate(92 133)"></rect>
</clipPath>
<clipPath id="SvgjsClipPath1057"><rect width="1000" height="1000" x="0" y="0" rx="500" ry="500"></rect></clipPath></defs>
</svg></svg></g></g></svg></g></svg>